<!--?xml version="1.0" standalone="no"?-->
              <svg id="sw-js-blob-svg" viewBox="0 0 100 100" xmlns="http://www.w3.org/2000/svg" version="1.1">
                    <defs> 
                        <linearGradient id="sw-gradient" x1="0" x2="1" y1="1" y2="0">
                            <stop id="stop1" stop-color="rgba(248, 117, 55, 1)" offset="0%"></stop>
                            <stop id="stop2" stop-color="rgba(251, 168, 31, 1)" offset="100%"></stop>
                        </linearGradient>
                    </defs>
                <path fill="url(#sw-gradient)" d="M25.4,-29.2C31.3,-25.3,33.5,-15.8,35.6,-5.9C37.8,3.9,40,14.1,35.8,20.1C31.7,26.1,21.2,27.8,12.4,28.8C3.5,29.7,-3.7,29.8,-10.1,27.6C-16.6,25.3,-22.2,20.7,-27.4,14.5C-32.7,8.2,-37.5,0.4,-36.8,-7C-36.1,-14.4,-29.9,-21.3,-22.8,-25C-15.8,-28.8,-7.9,-29.3,0.9,-30.4C9.7,-31.5,19.5,-33.2,25.4,-29.2Z" width="100%" height="100%" transform="translate(50 50)" stroke-width="0" style="transition: all 0.3s ease 0s;"></path>
              </svg>